<?xml version="1.0" encoding="UTF-8" standalone="no"?><!DOCTYPE svg PUBLIC "-//W3C//DTD SVG 1.1//EN" "http://www.w3.org/Graphics/SVG/1.1/DTD/svg11.dtd"><svg width="100%" height="100%" viewBox="0 0 67 67" version="1.1" xmlns="http://www.w3.org/2000/svg" xmlns:xlink="http://www.w3.org/1999/xlink" xml:space="preserve" xmlns:serif="http://www.serif.com/" style="fill-rule:evenodd;clip-rule:evenodd;stroke-linejoin:round;stroke-miterlimit:2;"><path d="M50,8.333l0,4.167l8.333,0l0,-4.167l-8.333,0Zm-20.833,6.25l-0,4.167l8.333,0l0,-4.167l-8.333,0Zm20.833,0l0,4.167l8.333,0l0,-4.167l-8.333,0Zm-20.833,6.25l-0,4.167l8.333,0l0,-4.167l-8.333,0Zm20.833,0l0,4.167l8.333,0l0,-4.167l-8.333,0Zm-20.833,6.25l-0,4.167l8.333,0l0,-4.167l-8.333,0Zm20.833,0l0,4.167l8.333,0l0,-4.167l-8.333,0Zm-41.667,6.25l0,4.167l8.334,0l-0,-4.167l-8.334,0Zm20.834,0l-0,4.167l8.333,0l0,-4.167l-8.333,0Zm10.416,0l0,4.167l8.334,0l-0,-4.167l-8.334,0Zm10.417,0l0,4.167l8.333,0l0,-4.167l-8.333,0Zm-41.667,6.25l0,4.167l8.334,0l-0,-4.167l-8.334,0Zm10.417,0l0,4.167l8.333,0l0,-4.167l-8.333,0Zm10.417,0l-0,4.167l8.333,0l0,-4.167l-8.333,0Zm10.416,0l0,4.167l8.334,0l-0,-4.167l-8.334,0Zm10.417,0l0,4.167l8.333,0l0,-4.167l-8.333,0Zm-41.667,6.25l0,4.167l8.334,0l-0,-4.167l-8.334,0Zm10.417,0l0,4.167l8.333,0l0,-4.167l-8.333,0Zm10.417,0l-0,4.167l8.333,0l0,-4.167l-8.333,0Zm10.416,0l0,4.167l8.334,0l-0,-4.167l-8.334,0Zm10.417,0l0,4.167l8.333,0l0,-4.167l-8.333,0Zm-41.667,6.25l0,4.167l8.334,0l-0,-4.167l-8.334,0Zm10.417,0l0,4.167l8.333,0l0,-4.167l-8.333,0Zm10.417,0l-0,4.167l8.333,0l0,-4.167l-8.333,0Zm10.416,0l0,4.167l8.334,0l-0,-4.167l-8.334,0Zm10.417,0l0,4.167l8.333,0l0,-4.167l-8.333,0Z" style="fill:#fff;fill-rule:nonzero;"/></svg>